<svg xmlns="http://www.w3.org/2000/svg" viewBox="0 0 132.54 132.54"><ellipse cx="66.5" cy="66.5" rx="75" ry="55" transform="translate(-27.78 66.27) rotate(-45)" fill="none" stroke="#44f1a6" stroke-width="1" stroke-dasharray="2 2"/><circle cx="67.35" cy="66.35" r="50.5" fill="none" stroke="#44f1a6" stroke-dasharray="2 2"/><circle cx="102.35" cy="99.35" r="24.5" fill="#182922" stroke="#44f1a6"/><circle cx="102.35" cy="99.35" r="19.5" fill="#1d3f30" stroke="#44f1a6"/><path d="M102.56,104.47v5.25a11.9,11.9,0,0,1,.06-23.79,7.71,7.71,0,0,0-4.93,13.64h0A4.88,4.88,0,0,0,102.56,104.47Z" transform="translate(-0.23 -0.23)" fill="#44f1a6"/><path d="M97.68,99.58H92.44a11.88,11.88,0,1,1,23.76,0,7.67,7.67,0,0,0-13.6-4.9h0A4.91,4.91,0,0,0,97.68,99.58Z" transform="translate(-0.23 -0.23)" fill="#44f1a6"/><path d="M102.59,94.68V89.43a11.9,11.9,0,0,1-.06,23.79,7.7,7.7,0,0,0,4.93-13.63h0A4.88,4.88,0,0,0,102.59,94.68Z" transform="translate(-0.23 -0.23)" fill="#44f1a6"/><path d="M107.47,99.58h5.24a11.88,11.88,0,1,1-23.76,0,7.67,7.67,0,0,0,13.6,4.89h0A4.91,4.91,0,0,0,107.47,99.58Z" transform="translate(-0.23 -0.23)" fill="#44f1a6"/><circle cx="32.35" cy="32.35" r="24.5" fill="#182922" stroke="#44f1a6"/><circle cx="32.35" cy="32.35" r="19.5" fill="#1d3f30" stroke="#44f1a6" stroke-dasharray="4 4"/><path d="M32.56,37.47v5.25a11.9,11.9,0,0,1,.06-23.79,7.71,7.71,0,0,0-4.93,13.64h0A4.88,4.88,0,0,0,32.56,37.47Z" transform="translate(-0.23 -0.23)" fill="#44f1a6"/><path d="M27.68,32.58H22.44a11.88,11.88,0,1,1,23.76,0,7.67,7.67,0,0,0-13.6-4.9h0A4.91,4.91,0,0,0,27.68,32.58Z" transform="translate(-0.23 -0.23)" fill="#44f1a6"/><path d="M32.59,27.68V22.43a11.9,11.9,0,0,1-.06,23.79,7.7,7.7,0,0,0,4.93-13.63h0A4.88,4.88,0,0,0,32.59,27.68Z" transform="translate(-0.23 -0.23)" fill="#44f1a6"/><path d="M37.47,32.58h5.24a11.88,11.88,0,1,1-23.76,0,7.67,7.67,0,0,0,13.6,4.89h0A4.91,4.91,0,0,0,37.47,32.58Z" transform="translate(-0.23 -0.23)" fill="#44f1a6"/><circle cx="48.35" cy="16.35" r="9" fill="#44f1a6"/><path d="M53.33,15.27a.81.81,0,0,0-.59-.24h-.28V13.39a3.65,3.65,0,0,0-1.14-2.69,3.92,3.92,0,0,0-5.49,0,3.65,3.65,0,0,0-1.14,2.69V15h-.28a.81.81,0,0,0-.59.24.78.78,0,0,0-.24.58v4.91a.78.78,0,0,0,.24.58.81.81,0,0,0,.59.24h8.33a.81.81,0,0,0,.59-.24.76.76,0,0,0,.25-.58V15.85A.76.76,0,0,0,53.33,15.27ZM50.8,15H46.35V13.39A2.1,2.1,0,0,1,47,11.85a2.26,2.26,0,0,1,3.15,0,2.1,2.1,0,0,1,.65,1.54Z" transform="translate(-0.23 -0.23)" fill="#0f0f0f"/><path d="M102.58,74.58c0-23.2-15.81-42-39-42m0,0,5.5-4m-5.5,4,5.5,4.5" transform="translate(-0.23 -0.23)" fill="none" stroke="#44f1a6"/><path d="M32.58,57.58c0,23.19,15.8,42,39,42m0,0-5.5,4m5.5-4-5.5-4.5" transform="translate(-0.23 -0.23)" fill="none" stroke="#44f1a6"/></svg>