<svg width="59" height="152" viewBox="0 0 59 152" fill="none" xmlns="http://www.w3.org/2000/svg">
<path d="M58.4998 143.003C58.4998 143.976 57.8372 145.004 56.3932 146.024C54.9625 147.034 52.8598 147.964 50.2164 148.753C44.9361 150.33 37.6116 151.313 29.4999 151.313C21.3882 151.313 14.0637 150.33 8.78339 148.753C6.14004 147.964 4.03732 147.034 2.60663 146.024C1.16256 145.004 0.5 143.976 0.5 143.003C0.5 142.03 1.16256 141.002 2.60663 139.982C4.03732 138.972 6.14004 138.042 8.78339 137.253C14.0637 135.676 21.3882 134.693 29.4999 134.693C37.6116 134.693 44.9361 135.676 50.2164 137.253C52.8598 138.042 54.9625 138.972 56.3932 139.982C57.8372 141.002 58.4998 142.03 58.4998 143.003Z" fill="#0F0F0F" stroke="#44F1A6"/>
<path d="M49.5 100.5V145.5L55.5 143L56 141.5V97.5L49.5 100.5Z" fill="#276C4E"/>
<path d="M9.5 100V145.5L27 148.5L40.5 147.5L49.5 145.5V100.5L40.5 102L21.5 102.5L9.5 100Z" fill="#0F0F0F"/>
<path d="M9.5 100.5L3 98L2.5 141L5 144L9.5 145.5V100.5Z" fill="#1D3F30"/>
<mask id="path-5-inside-1" fill="white">
<path fill-rule="evenodd" clip-rule="evenodd" d="M56.6392 96.6062H2.35938V141.241H2.3778C2.90655 145.484 14.847 148.876 29.4994 148.876C44.1519 148.876 56.0923 145.484 56.6211 141.241H56.6392V140.975C56.6393 140.966 56.6393 140.957 56.6393 140.947C56.6393 140.938 56.6393 140.929 56.6392 140.92V96.6062Z"/>
</mask>
<path d="M2.35938 96.6062V95.6062H1.35938V96.6062H2.35938ZM56.6392 96.6062H57.6392V95.6062H56.6392V96.6062ZM2.35938 141.241H1.35938V142.241H2.35938V141.241ZM2.3778 141.241L3.37012 141.117L3.26091 140.241H2.3778V141.241ZM56.6211 141.241V140.241H55.738L55.6288 141.117L56.6211 141.241ZM56.6392 141.241V142.241H57.6392V141.241H56.6392ZM56.6392 140.975L55.6392 140.963V140.975H56.6392ZM56.6392 140.92H55.6391L55.6393 140.932L56.6392 140.92ZM2.35938 97.6062H56.6392V95.6062H2.35938V97.6062ZM3.35938 141.241V96.6062H1.35938V141.241H3.35938ZM2.3778 140.241H2.35938V142.241H2.3778V140.241ZM29.4994 147.876C22.2399 147.876 15.6869 147.035 10.9139 145.687C8.52234 145.012 6.62634 144.223 5.3189 143.383C3.97662 142.52 3.44649 141.73 3.37012 141.117L1.38548 141.365C1.57349 142.873 2.7342 144.099 4.23734 145.065C5.77534 146.054 7.87937 146.909 10.3706 147.612C15.3631 149.021 22.1066 149.876 29.4994 149.876V147.876ZM55.6288 141.117C55.5524 141.73 55.0223 142.52 53.68 143.383C52.3725 144.223 50.4765 145.012 48.085 145.687C43.312 147.035 36.759 147.876 29.4994 147.876V149.876C36.8923 149.876 43.6358 149.021 48.6283 147.612C51.1195 146.909 53.2235 146.054 54.7615 145.065C56.2647 144.099 57.4254 142.873 57.6134 141.365L55.6288 141.117ZM56.6392 140.241H56.6211V142.241H56.6392V140.241ZM55.6392 140.975V141.241H57.6392V140.975H55.6392ZM55.6393 140.947C55.6393 140.953 55.6393 140.958 55.6393 140.963L57.6391 140.986C57.6393 140.973 57.6393 140.96 57.6393 140.947H55.6393ZM55.6393 140.932C55.6393 140.937 55.6393 140.942 55.6393 140.947H57.6393C57.6393 140.934 57.6393 140.922 57.6391 140.909L55.6393 140.932ZM55.6392 96.6062V140.92H57.6392V96.6062H55.6392Z" fill="#44F1A6" mask="url(#path-5-inside-1)"/>
<path d="M29.4995 128.26V133.23C23.2499 133.23 18.1836 128.187 18.1836 121.966C18.1836 115.745 23.2499 110.701 29.4995 110.701C25.4556 110.701 22.1775 113.965 22.1775 117.99C22.1775 120.253 23.2139 122.276 24.84 123.613C24.84 123.616 24.84 123.619 24.84 123.622C24.84 126.184 26.9261 128.26 29.4995 128.26Z" fill="#44F1A6"/>
<path d="M24.84 123.622H19.8477C19.8477 117.401 24.914 112.358 31.1636 112.358C37.4132 112.358 42.4794 117.401 42.4794 123.622C42.4794 119.597 39.2013 116.333 35.1574 116.333C32.8837 116.333 30.852 117.365 29.509 118.984C29.5058 118.984 29.5027 118.984 29.4995 118.984C26.9261 118.984 24.84 121.06 24.84 123.622Z" fill="#44F1A6"/>
<path d="M29.4995 118.984L29.4995 114.014C35.7491 114.014 40.8154 119.058 40.8153 125.279C40.8153 131.5 35.7491 136.543 29.4995 136.543C33.5433 136.543 36.8215 133.279 36.8215 129.254C36.8215 126.991 35.7851 124.968 34.159 123.632C34.159 123.628 34.159 123.625 34.159 123.622C34.159 121.06 32.0728 118.984 29.4995 118.984Z" fill="#44F1A6"/>
<path d="M34.159 123.622H39.1513C39.1513 129.843 34.085 134.886 27.8354 134.886C21.5858 134.886 16.5195 129.843 16.5195 123.622C16.5195 127.647 19.7977 130.911 23.8416 130.911C26.1153 130.911 28.147 129.879 29.49 128.26C29.4931 128.26 29.4963 128.26 29.4995 128.26C32.0728 128.26 34.159 126.184 34.159 123.622Z" fill="#44F1A6"/>
<path d="M0.5 95L3.5 98H4V84L0.5 82V95Z" fill="#276C4E"/>
<path d="M4.5 84.5L4 98.5L6.5 99.5V85.5L4.5 84.5Z" fill="#1D3F30"/>
<path d="M26 88.5L6.5 85.5V99L8 100L20.5 102L30 102.5L42.5 101.5L51 99.5V85.5L44.5 87.5L26 88.5Z" fill="#0F0F0F"/>
<path d="M51.5 85.5V88.5L51 99L52 99.5L56.5 97.5L58.5 95V81L57 83L51.5 85.5Z" fill="#276C4E"/>
<mask id="path-12-inside-2" fill="white">
<path fill-rule="evenodd" clip-rule="evenodd" d="M59 80.1617H0.000201513V94.2241C6.72097e-05 94.235 0 94.246 0 94.257C0 99.1223 13.2076 103.066 29.4999 103.066C45.7922 103.066 58.9998 99.1223 58.9998 94.257L59 94.257V80.1617Z"/>
</mask>
<path d="M0.000201513 80.1617V79.1617H-0.999798V80.1617H0.000201513ZM59 80.1617H60V79.1617H59V80.1617ZM0.000201513 94.2241L1.0002 94.2363V94.2241H0.000201513ZM58.9998 94.257L59.0516 93.2583L57.9998 93.2037V94.257H58.9998ZM59 94.257L58.9482 95.2556L60 95.3102V94.257H59ZM0.000201513 81.1617H59V79.1617H0.000201513V81.1617ZM1.0002 94.2241V80.1617H-0.999798V94.2241H1.0002ZM1 94.257C1 94.2501 1.00004 94.2432 1.00013 94.2363L-0.999723 94.2118C-0.999908 94.2269 -1 94.2419 -1 94.257H1ZM29.4999 102.066C21.4227 102.066 14.1486 101.088 8.92646 99.5281C6.30898 98.7464 4.26362 97.8354 2.89502 96.8691C1.49966 95.884 1 94.9864 1 94.257H-1C-1 95.9602 0.151288 97.3802 1.74148 98.5029C3.35843 99.6446 5.63322 100.632 8.35418 101.444C13.8089 103.073 21.2848 104.066 29.4999 104.066V102.066ZM57.9998 94.257C57.9998 94.9864 57.5001 95.884 56.1048 96.8691C54.7362 97.8354 52.6908 98.7464 50.0733 99.5281C44.8512 101.088 37.5771 102.066 29.4999 102.066V104.066C37.715 104.066 45.1909 103.073 50.6456 101.444C53.3666 100.632 55.6414 99.6446 57.2583 98.5029C58.8485 97.3802 59.9998 95.9602 59.9998 94.257H57.9998ZM59.0518 93.2583L59.0516 93.2583L58.948 95.2556L58.9482 95.2556L59.0518 93.2583ZM58 80.1617V94.257H60V80.1617H58Z" fill="#44F1A6" mask="url(#path-12-inside-2)"/>
<path d="M58.4998 80.1617C58.4998 81.1346 57.8372 82.1627 56.3932 83.1823C54.9625 84.1924 52.8598 85.1225 50.2164 85.9119C44.9361 87.4887 37.6116 88.4712 29.4999 88.4712C21.3882 88.4712 14.0637 87.4887 8.78339 85.9119C6.14004 85.1225 4.03732 84.1924 2.60663 83.1823C1.16256 82.1627 0.5 81.1346 0.5 80.1617C0.5 79.1888 1.16256 78.1607 2.60663 77.1411C4.03732 76.131 6.14004 75.2009 8.78339 74.4115C14.0637 72.8347 21.3882 71.8522 29.4999 71.8522C37.6116 71.8522 44.9361 72.8347 50.2164 74.4115C52.8598 75.2009 54.9625 76.131 56.3932 77.1411C57.8372 78.1607 58.4998 79.1888 58.4998 80.1617Z" fill="#0F0F0F" stroke="#44F1A6"/>
<path d="M53.7786 82.2172C53.7786 82.8848 53.2759 83.6426 52.0604 84.4259C50.8674 85.1946 49.108 85.9059 46.8892 86.5106C42.4588 87.7181 36.3102 88.4712 29.4987 88.4712C22.6872 88.4712 16.5385 87.7181 12.1081 86.5106C9.88933 85.9059 8.12991 85.1946 6.93692 84.4259C5.72147 83.6426 5.21875 82.8848 5.21875 82.2172C5.21875 81.5496 5.72147 80.7918 6.93692 80.0086C8.12991 79.2398 9.88933 78.5286 12.1081 77.9239C16.5385 76.7163 22.6872 75.9633 29.4987 75.9633C36.3102 75.9633 42.4588 76.7163 46.8892 77.9239C49.108 78.5286 50.8674 79.2398 52.0604 80.0086C53.2759 80.7918 53.7786 81.5496 53.7786 82.2172Z" stroke="#44F1A6"/>
<path fill-rule="evenodd" clip-rule="evenodd" d="M4.71906 84.2728H3.53906V98.3681H4.71906V84.2728ZM7.08079 84.8601H5.90079V98.9554H7.08079V84.8601Z" fill="#44F1A6"/>
<path d="M50.5605 86.0347H51.7405V100.13H50.5605V86.0347Z" fill="#44F1A6"/>
<path d="M8.84961 100.13H10.0296V145.352H8.84961V100.13Z" fill="#44F1A6"/>
<path d="M49 100.13H50.18V146H49V100.13Z" fill="#44F1A6"/>
<circle cx="42.5" cy="40.5" r="14" fill="#182922" stroke="#44F1A6"/>
<circle cx="42.5004" cy="40.5" r="11.1" fill="#1D3F30" stroke="#44F1A6" stroke-dasharray="2 2"/>
<path d="M42.493 43.341L42.4862 46.385C38.6806 46.385 35.6025 43.2959 35.6111 39.4854C35.6197 35.6749 38.7117 32.5858 42.5172 32.5858C40.0548 32.5858 38.0541 34.5846 38.0485 37.0503C38.0454 38.4366 38.6737 39.6754 39.6621 40.4942C39.6621 40.4962 39.6621 40.4981 39.6621 40.5C39.6586 42.0691 40.926 43.341 42.493 43.341Z" fill="#44F1A6"/>
<path d="M39.6621 40.5H36.6221C36.6307 36.6895 39.7227 33.6005 43.5283 33.6005C47.3339 33.6005 50.412 36.6895 50.4034 40.5C50.4089 38.0344 48.4172 36.0356 45.9548 36.0356C44.5702 36.0356 43.3316 36.6675 42.5116 37.659C42.5097 37.659 42.5077 37.659 42.5058 37.659C40.9388 37.659 39.6656 38.931 39.6621 40.5Z" fill="#44F1A6"/>
<path d="M42.5058 37.659L42.5127 34.6151C46.3183 34.6151 49.3963 37.7042 49.3878 41.5147C49.3792 45.3252 46.2872 48.4143 42.4816 48.4143C44.944 48.4143 46.9447 46.4155 46.9503 43.9498C46.9534 42.5635 46.3251 41.3247 45.3367 40.5058C45.3367 40.5039 45.3367 40.502 45.3367 40.5C45.3403 38.931 44.0728 37.659 42.5058 37.659Z" fill="#44F1A6"/>
<path d="M45.3367 40.5H48.3767C48.3681 44.3106 45.2761 47.3996 41.4705 47.3996C37.665 47.3996 34.5869 44.3106 34.5955 40.5C34.5899 42.9657 36.5816 44.9645 39.044 44.9645C40.4286 44.9645 41.6672 44.3326 42.4872 43.341C42.4891 43.341 42.4911 43.341 42.493 43.341C44.06 43.341 45.3332 42.0691 45.3367 40.5Z" fill="#44F1A6"/>
<circle cx="17" cy="12" r="11.5" fill="#182922" stroke="#44F1A6"/>
<circle cx="17.0004" cy="12" r="9.1" fill="#1D3F30" stroke="#44F1A6" stroke-dasharray="2 2"/>
<path d="M16.9938 14.3512L16.9881 16.8703C13.8387 16.8703 11.2913 14.3139 11.2984 11.1603C11.3055 8.00677 13.8644 5.45032 17.0139 5.45032C14.976 5.45032 13.3202 7.10449 13.3156 9.14502C13.313 10.2924 13.833 11.3175 14.651 11.9952C14.651 11.9968 14.651 11.9984 14.651 12C14.6481 13.2985 15.697 14.3512 16.9938 14.3512Z" fill="#44F1A6"/>
<path d="M14.651 12H12.1351C12.1422 8.84648 14.7011 6.29002 17.8506 6.29002C21 6.29002 23.5474 8.84648 23.5403 12C23.5449 9.95949 21.8966 8.30532 19.8587 8.30532C18.7129 8.30532 17.6878 8.82829 17.0092 9.64885C17.0076 9.64885 17.006 9.64885 17.0044 9.64885C15.7076 9.64885 14.6539 10.7015 14.651 12Z" fill="#44F1A6"/>
<path d="M17.0044 9.64885L17.0101 7.12973C20.1595 7.12973 22.7069 9.68618 22.6998 12.8397C22.6927 15.9933 20.1338 18.5497 16.9844 18.5497C19.0222 18.5497 20.678 16.8955 20.6826 14.855C20.6852 13.7077 20.1652 12.6825 19.3472 12.0048C19.3472 12.0032 19.3472 12.0016 19.3472 12C19.3502 10.7015 18.3012 9.64885 17.0044 9.64885Z" fill="#44F1A6"/>
<path d="M19.3472 12H21.8631C21.856 15.1536 19.2971 17.71 16.1476 17.71C12.9982 17.71 10.4508 15.1536 10.4579 12C10.4533 14.0406 12.1016 15.6947 14.1395 15.6947C15.2853 15.6947 16.3104 15.1718 16.989 14.3512C16.9906 14.3512 16.9922 14.3512 16.9938 14.3512C18.2907 14.3512 19.3443 13.2985 19.3472 12Z" fill="#44F1A6"/>
<circle cx="17" cy="69" r="11.5" fill="#182922" stroke="#44F1A6"/>
<circle cx="17.0004" cy="69" r="9.1" fill="#1D3F30" stroke="#44F1A6" stroke-dasharray="2 2"/>
<path d="M16.9938 71.3512L16.9881 73.8703C13.8387 73.8703 11.2913 71.3139 11.2984 68.1603C11.3055 65.0068 13.8644 62.4503 17.0139 62.4503C14.976 62.4503 13.3202 64.1045 13.3156 66.145C13.313 67.2924 13.833 68.3175 14.651 68.9952C14.651 68.9968 14.651 68.9984 14.651 69C14.6481 70.2985 15.697 71.3512 16.9938 71.3512Z" fill="#44F1A6"/>
<path d="M14.651 69H12.1351C12.1422 65.8465 14.7011 63.29 17.8506 63.29C21 63.29 23.5474 65.8465 23.5403 69C23.5449 66.9595 21.8966 65.3053 19.8587 65.3053C18.7129 65.3053 17.6878 65.8283 17.0092 66.6489C17.0076 66.6488 17.006 66.6488 17.0044 66.6488C15.7076 66.6488 14.6539 67.7015 14.651 69Z" fill="#44F1A6"/>
<path d="M17.0044 66.6488L17.0101 64.1297C20.1595 64.1297 22.7069 66.6862 22.6998 69.8397C22.6927 72.9933 20.1338 75.5497 16.9844 75.5497C19.0222 75.5497 20.678 73.8955 20.6826 71.855C20.6852 70.7077 20.1652 69.6825 19.3472 69.0048C19.3472 69.0032 19.3472 69.0016 19.3472 69C19.3502 67.7015 18.3012 66.6488 17.0044 66.6488Z" fill="#44F1A6"/>
<path d="M19.3472 69H21.8631C21.856 72.1536 19.2971 74.71 16.1476 74.71C12.9982 74.71 10.4508 72.1536 10.4579 69C10.4533 71.0406 12.1016 72.6947 14.1395 72.6947C15.2853 72.6947 16.3104 72.1718 16.989 71.3512C16.9906 71.3512 16.9922 71.3512 16.9938 71.3512C18.2907 71.3512 19.3443 70.2985 19.3472 69Z" fill="#44F1A6"/>
</svg>
