<svg width="130" height="135" viewBox="0 0 130 135" fill="none" xmlns="http://www.w3.org/2000/svg">
<path d="M83 50L72 132L94 76.5L108.5 38L92 47L83 50Z" fill="#30986B"/>
<path d="M44 43L30 35.5L70.5 129L44 43Z" fill="#1D3F30"/>
<path d="M38.5 40.5L35 31L50.5 40.5H38.5Z" fill="#276C4E"/>
<path d="M29 33.5L72 133.5M72 133.5L109.5 36M72 133.5L83 50M72 133.5L44.5 44M33 26.5C33 27.3 36.6667 35.6667 38.5 40" stroke="#44F1A6"/>
<path fill-rule="evenodd" clip-rule="evenodd" d="M72 34.9744C81.1085 34.9744 88.4946 30.9663 88.5128 26.0183L88.5128 26C88.5128 21.0497 81.138 17.0356 72.0338 17.0257L72 17.0256C62.8915 17.0256 55.5054 21.0337 55.4872 25.9817L55.4872 25.9824L55.4872 26C55.4872 30.9503 62.862 34.9644 71.9662 34.9743L72 34.9744ZM97.4827 39.572C95.8681 44.1428 90.1934 47.929 82.5776 49.779C82.5599 49.7833 82.5422 49.7875 82.5246 49.7918L82.4618 50.2509C82.5004 50.2453 82.539 50.2396 82.5776 50.2339C99.5933 47.7117 112.103 39.2523 112.103 29.2051C112.103 22.2995 106.193 16.1439 96.9725 12.1507C108.95 13.4004 118 19.1258 118 26C118 13.963 100.045 4.20513 77.8974 4.20513C65.191 4.20513 53.8648 7.41681 46.5173 12.428C48.8168 5.91832 59.3515 1 72 1C49.852 1 31.8974 10.7579 31.8974 22.7949C31.8974 29.7005 37.8069 35.8561 47.0275 39.8493C35.0497 38.5996 26 32.8742 26 26C26 38.037 43.9545 47.7949 66.1026 47.7949C78.809 47.7949 90.1352 44.5832 97.4827 39.572Z" fill="#44F1A6"/>
<path d="M87.5 27C87.5 28.9177 85.9324 30.7885 83.0901 32.2096C80.2777 33.6158 76.3575 34.5 72 34.5C67.6425 34.5 63.7223 33.6158 60.9099 32.2096C58.0676 30.7885 56.5 28.9177 56.5 27C56.5 25.0823 58.0676 23.2115 60.9099 21.7904C63.7223 20.3842 67.6425 19.5 72 19.5C76.3575 19.5 80.2777 20.3842 83.0901 21.7904C85.9324 23.2115 87.5 25.0823 87.5 27Z" stroke="#44F1A6"/>
<path d="M85.5 29.5C85.5 31.2977 84.1319 33.0401 81.6634 34.3626C79.2158 35.6737 75.8002 36.5 72 36.5C68.1998 36.5 64.7842 35.6737 62.3366 34.3626C59.8681 33.0401 58.5 31.2977 58.5 29.5C58.5 27.7023 59.8681 25.9599 62.3366 24.6374C64.7842 23.3263 68.1998 22.5 72 22.5C75.8002 22.5 79.2158 23.3263 81.6634 24.6374C84.1319 25.9599 85.5 27.7023 85.5 29.5Z" stroke="#44F1A6"/>
<path d="M29.8274 83.5252C33.5072 88.4713 33.0679 94.8247 29.1124 97.7675C25.1569 100.71 18.9453 99.3049 15.2655 94.3588C11.5857 89.4127 12.0251 83.0593 15.9806 80.1165C19.936 77.1738 26.1476 78.579 29.8274 83.5252Z" fill="#1D3F30" stroke="#44F1A6"/>
<path fill-rule="evenodd" clip-rule="evenodd" d="M20.1112 91.2432L18.0426 82.9752L18.0426 82.9751L18.0426 82.9752L18.0426 82.975L18.0428 82.9753L25.3673 87.3328L24.1482 91.182L24.1481 91.1818L20.1112 91.2432ZM21.0501 92.5062L25.0872 92.4448L26.3063 88.5957L26.9659 94.97L21.0501 92.5062Z" fill="#44F1A6"/>
<path d="M125.333 57.8898C123.128 61.7097 118.857 63.1852 115.852 61.4504C112.847 59.7155 111.989 55.2789 114.195 51.459C116.4 47.6391 120.671 46.1635 123.676 47.8984C126.681 49.6333 127.539 54.0698 125.333 57.8898Z" fill="#1D3F30" stroke="#44F1A6"/>
<path fill-rule="evenodd" clip-rule="evenodd" d="M118.736 56.3813L118.736 56.3812L118.735 56.3813L118.736 56.3806L117.537 53.716L122.437 49.9701L122.437 49.9691L122.437 49.9697L122.438 49.9691L122.437 49.9708L121.643 56.0871L118.736 56.3812L118.736 56.3813ZM116.968 54.7024L118.167 57.3676L121.075 57.0734L117.028 59.3406L116.968 54.7024Z" fill="#44F1A6"/>
<path d="M14.8801 5.84652C17.765 8.73137 18.0531 12.8909 15.7945 15.1495C13.5359 17.4081 9.37639 17.12 6.49155 14.2351C3.60671 11.3503 3.31862 7.19073 5.57719 4.93216C7.83576 2.6736 11.9953 2.96168 14.8801 5.84652Z" fill="#1D3F30" stroke="#44F1A6"/>
<path fill-rule="evenodd" clip-rule="evenodd" d="M9.29199 11.808L7.11125 6.51657L7.11045 6.51577L7.11102 6.51601L7.11053 6.51483L7.11219 6.51649L12.4036 8.69723L11.9689 11.3743L11.9681 11.3735L9.29199 11.808ZM10.0398 12.5553L12.7168 12.1207L13.1514 9.44365L14.2117 13.6156L10.0398 12.5553Z" fill="#44F1A6"/>
<path d="M9.49883 16.5C8.77917 25.1358 10.3807 38.6076 19.7435 50.5M64.0001 73.5C45.7102 70.3773 33.3026 63.9103 25 56.1951" stroke="#44F1A6"/>
<path d="M30 97C32.9648 99.753 37.608 103.118 43.5 106.095M94.5 110C79.0226 115.513 64.4535 113.964 52.7884 110" stroke="#44F1A6"/>
<path d="M115.5 61.5C114.016 62.9014 110.82 65.4363 107 68.0278M94.5 75C97.3807 73.8477 100.521 72.1422 103.5 70.2989" stroke="#44F1A6"/>
</svg>
